<mxfile host="app.diagrams.net" agent="Mozilla/5.0 (Windows NT 10.0; Win64; x64) AppleWebKit/537.36 (KHTML, like Gecko) Chrome/137.0.0.0 Safari/537.36" version="26.2.5">
  <diagram id="C5RBs43oDa-KdzZeNtuy" name="Page-1">
    <mxGraphModel dx="1182" dy="638" grid="1" gridSize="10" guides="1" tooltips="1" connect="1" arrows="1" fold="1" page="1" pageScale="1" pageWidth="827" pageHeight="1169" math="0" shadow="0">
      <root>
        <mxCell id="WIyWlLk6GJQsqaUBKTNV-0" />
        <mxCell id="WIyWlLk6GJQsqaUBKTNV-1" parent="WIyWlLk6GJQsqaUBKTNV-0" />
        <mxCell id="bLksk85n91GG9WhDsTqR-7" value="&lt;div style=&quot;text-align: left;&quot;&gt;&lt;span style=&quot;background-color: transparent; color: light-dark(rgb(0, 0, 0), rgb(255, 255, 255));&quot;&gt;&lt;font style=&quot;font-size: 18px;&quot;&gt;資料過濾&lt;/font&gt;&lt;font style=&quot;font-size: 14px;&quot;&gt;&amp;nbsp; &amp;nbsp; &amp;nbsp; &amp;nbsp; &amp;nbsp; &amp;nbsp; &amp;nbsp; &amp;nbsp; &amp;nbsp; &amp;nbsp; &amp;nbsp; &amp;nbsp; &amp;nbsp; &amp;nbsp; &amp;nbsp; &amp;nbsp; &amp;nbsp; &amp;nbsp; &amp;nbsp; &amp;nbsp; &amp;nbsp; &amp;nbsp;&amp;nbsp;&lt;/font&gt;&lt;/span&gt;&lt;/div&gt;&lt;div&gt;&lt;span style=&quot;font-size: 14px;&quot;&gt;&lt;br&gt;&lt;/span&gt;&lt;/div&gt;&lt;div&gt;&lt;span style=&quot;font-size: 14px;&quot;&gt;&lt;br&gt;&lt;/span&gt;&lt;/div&gt;&lt;div&gt;&lt;span style=&quot;font-size: 14px;&quot;&gt;&lt;br&gt;&lt;/span&gt;&lt;/div&gt;&lt;div&gt;&lt;span style=&quot;font-size: 14px;&quot;&gt;&lt;br&gt;&lt;/span&gt;&lt;/div&gt;&lt;div&gt;&lt;br&gt;&lt;/div&gt;&lt;div&gt;&lt;div&gt;&lt;br&gt;&lt;/div&gt;&lt;div&gt;&lt;br&gt;&lt;/div&gt;&lt;div&gt;&lt;br&gt;&lt;/div&gt;&lt;/div&gt;" style="rounded=0;whiteSpace=wrap;html=1;fillColor=#E6E6E6;" vertex="1" parent="WIyWlLk6GJQsqaUBKTNV-1">
          <mxGeometry x="100" y="220" width="260" height="160" as="geometry" />
        </mxCell>
        <mxCell id="bLksk85n91GG9WhDsTqR-5" style="edgeStyle=orthogonalEdgeStyle;rounded=0;orthogonalLoop=1;jettySize=auto;html=1;entryX=0.5;entryY=0;entryDx=0;entryDy=0;" edge="1" parent="WIyWlLk6GJQsqaUBKTNV-1" source="bLksk85n91GG9WhDsTqR-0" target="bLksk85n91GG9WhDsTqR-3">
          <mxGeometry relative="1" as="geometry" />
        </mxCell>
        <mxCell id="bLksk85n91GG9WhDsTqR-0" value="&lt;font style=&quot;font-size: 18px;&quot;&gt;開始&lt;/font&gt;" style="strokeWidth=2;html=1;shape=mxgraph.flowchart.terminator;whiteSpace=wrap;" vertex="1" parent="WIyWlLk6GJQsqaUBKTNV-1">
          <mxGeometry x="190" y="70" width="80" height="30" as="geometry" />
        </mxCell>
        <mxCell id="bLksk85n91GG9WhDsTqR-34" style="edgeStyle=orthogonalEdgeStyle;rounded=0;orthogonalLoop=1;jettySize=auto;html=1;" edge="1" parent="WIyWlLk6GJQsqaUBKTNV-1" source="bLksk85n91GG9WhDsTqR-1" target="bLksk85n91GG9WhDsTqR-32">
          <mxGeometry relative="1" as="geometry" />
        </mxCell>
        <mxCell id="bLksk85n91GG9WhDsTqR-1" value="&lt;font style=&quot;font-size: 18px;&quot;&gt;讀取車號對應票種申請表&lt;/font&gt;" style="rounded=1;whiteSpace=wrap;html=1;absoluteArcSize=1;arcSize=14;strokeWidth=2;" vertex="1" parent="WIyWlLk6GJQsqaUBKTNV-1">
          <mxGeometry x="100" y="170" width="260" height="30" as="geometry" />
        </mxCell>
        <mxCell id="bLksk85n91GG9WhDsTqR-6" style="edgeStyle=orthogonalEdgeStyle;rounded=0;orthogonalLoop=1;jettySize=auto;html=1;entryX=0.5;entryY=0;entryDx=0;entryDy=0;" edge="1" parent="WIyWlLk6GJQsqaUBKTNV-1" source="bLksk85n91GG9WhDsTqR-3" target="bLksk85n91GG9WhDsTqR-1">
          <mxGeometry relative="1" as="geometry" />
        </mxCell>
        <mxCell id="bLksk85n91GG9WhDsTqR-3" value="&lt;font style=&quot;font-size: 18px;&quot;&gt;合併原始檔案&lt;/font&gt;" style="rounded=1;whiteSpace=wrap;html=1;absoluteArcSize=1;arcSize=14;strokeWidth=2;" vertex="1" parent="WIyWlLk6GJQsqaUBKTNV-1">
          <mxGeometry x="160" y="120" width="140" height="30" as="geometry" />
        </mxCell>
        <mxCell id="bLksk85n91GG9WhDsTqR-18" style="edgeStyle=orthogonalEdgeStyle;rounded=0;orthogonalLoop=1;jettySize=auto;html=1;entryX=0.5;entryY=0;entryDx=0;entryDy=0;" edge="1" parent="WIyWlLk6GJQsqaUBKTNV-1" source="bLksk85n91GG9WhDsTqR-11" target="bLksk85n91GG9WhDsTqR-13">
          <mxGeometry relative="1" as="geometry" />
        </mxCell>
        <mxCell id="bLksk85n91GG9WhDsTqR-11" value="&lt;font style=&quot;font-size: 18px;&quot;&gt;合併日期與時間&lt;/font&gt;&lt;div&gt;&lt;font style=&quot;font-size: 18px;&quot;&gt;轉為 datetime 格式&lt;/font&gt;&lt;/div&gt;" style="rounded=1;whiteSpace=wrap;html=1;absoluteArcSize=1;arcSize=14;strokeWidth=2;" vertex="1" parent="WIyWlLk6GJQsqaUBKTNV-1">
          <mxGeometry x="150" y="410" width="160" height="60" as="geometry" />
        </mxCell>
        <mxCell id="bLksk85n91GG9WhDsTqR-20" style="edgeStyle=orthogonalEdgeStyle;rounded=0;orthogonalLoop=1;jettySize=auto;html=1;entryX=0.5;entryY=1;entryDx=0;entryDy=0;" edge="1" parent="WIyWlLk6GJQsqaUBKTNV-1" source="bLksk85n91GG9WhDsTqR-13" target="bLksk85n91GG9WhDsTqR-19">
          <mxGeometry relative="1" as="geometry" />
        </mxCell>
        <mxCell id="bLksk85n91GG9WhDsTqR-13" value="&lt;span style=&quot;font-size: 18px;&quot;&gt;依據時間修正票種&lt;/span&gt;" style="rounded=1;whiteSpace=wrap;html=1;absoluteArcSize=1;arcSize=14;strokeWidth=2;" vertex="1" parent="WIyWlLk6GJQsqaUBKTNV-1">
          <mxGeometry x="147.5" y="490" width="165" height="35" as="geometry" />
        </mxCell>
        <mxCell id="bLksk85n91GG9WhDsTqR-22" style="edgeStyle=orthogonalEdgeStyle;rounded=0;orthogonalLoop=1;jettySize=auto;html=1;entryX=0.5;entryY=1;entryDx=0;entryDy=0;" edge="1" parent="WIyWlLk6GJQsqaUBKTNV-1" source="bLksk85n91GG9WhDsTqR-19" target="bLksk85n91GG9WhDsTqR-21">
          <mxGeometry relative="1" as="geometry" />
        </mxCell>
        <mxCell id="bLksk85n91GG9WhDsTqR-19" value="&lt;span style=&quot;font-size: 18px;&quot;&gt;輸出分析之檔案&lt;/span&gt;" style="rounded=1;whiteSpace=wrap;html=1;absoluteArcSize=1;arcSize=14;strokeWidth=2;" vertex="1" parent="WIyWlLk6GJQsqaUBKTNV-1">
          <mxGeometry x="370" y="450" width="165" height="35" as="geometry" />
        </mxCell>
        <mxCell id="bLksk85n91GG9WhDsTqR-24" style="edgeStyle=orthogonalEdgeStyle;rounded=0;orthogonalLoop=1;jettySize=auto;html=1;" edge="1" parent="WIyWlLk6GJQsqaUBKTNV-1" source="bLksk85n91GG9WhDsTqR-21" target="bLksk85n91GG9WhDsTqR-23">
          <mxGeometry relative="1" as="geometry" />
        </mxCell>
        <mxCell id="bLksk85n91GG9WhDsTqR-21" value="&lt;span style=&quot;font-size: 18px;&quot;&gt;分析檔案&lt;/span&gt;" style="rounded=1;whiteSpace=wrap;html=1;absoluteArcSize=1;arcSize=14;strokeWidth=2;" vertex="1" parent="WIyWlLk6GJQsqaUBKTNV-1">
          <mxGeometry x="460" y="355" width="100" height="35" as="geometry" />
        </mxCell>
        <mxCell id="bLksk85n91GG9WhDsTqR-25" style="edgeStyle=orthogonalEdgeStyle;rounded=0;orthogonalLoop=1;jettySize=auto;html=1;entryX=1;entryY=0.5;entryDx=0;entryDy=0;" edge="1" parent="WIyWlLk6GJQsqaUBKTNV-1" source="bLksk85n91GG9WhDsTqR-23" target="bLksk85n91GG9WhDsTqR-21">
          <mxGeometry relative="1" as="geometry">
            <Array as="points">
              <mxPoint x="600" y="263" />
              <mxPoint x="600" y="373" />
            </Array>
          </mxGeometry>
        </mxCell>
        <mxCell id="bLksk85n91GG9WhDsTqR-27" value="&lt;font style=&quot;font-size: 14px;&quot;&gt;否&lt;/font&gt;" style="edgeLabel;html=1;align=center;verticalAlign=middle;resizable=0;points=[];" vertex="1" connectable="0" parent="bLksk85n91GG9WhDsTqR-25">
          <mxGeometry x="-0.159" y="1" relative="1" as="geometry">
            <mxPoint as="offset" />
          </mxGeometry>
        </mxCell>
        <mxCell id="bLksk85n91GG9WhDsTqR-28" style="edgeStyle=orthogonalEdgeStyle;rounded=0;orthogonalLoop=1;jettySize=auto;html=1;entryX=1;entryY=0.5;entryDx=0;entryDy=0;" edge="1" parent="WIyWlLk6GJQsqaUBKTNV-1" source="bLksk85n91GG9WhDsTqR-23" target="bLksk85n91GG9WhDsTqR-32">
          <mxGeometry relative="1" as="geometry" />
        </mxCell>
        <mxCell id="bLksk85n91GG9WhDsTqR-29" value="&lt;font style=&quot;font-size: 14px;&quot;&gt;是&lt;/font&gt;" style="edgeLabel;html=1;align=center;verticalAlign=middle;resizable=0;points=[];" vertex="1" connectable="0" parent="bLksk85n91GG9WhDsTqR-28">
          <mxGeometry x="-0.1071" y="1" relative="1" as="geometry">
            <mxPoint as="offset" />
          </mxGeometry>
        </mxCell>
        <mxCell id="bLksk85n91GG9WhDsTqR-23" value="&lt;font style=&quot;font-size: 18px;&quot;&gt;是否出現異常&lt;/font&gt;" style="strokeWidth=2;html=1;shape=mxgraph.flowchart.decision;whiteSpace=wrap;" vertex="1" parent="WIyWlLk6GJQsqaUBKTNV-1">
          <mxGeometry x="440" y="207.5" width="140" height="125" as="geometry" />
        </mxCell>
        <mxCell id="bLksk85n91GG9WhDsTqR-35" style="edgeStyle=orthogonalEdgeStyle;rounded=0;orthogonalLoop=1;jettySize=auto;html=1;entryX=0.5;entryY=0;entryDx=0;entryDy=0;" edge="1" parent="WIyWlLk6GJQsqaUBKTNV-1" source="bLksk85n91GG9WhDsTqR-32" target="bLksk85n91GG9WhDsTqR-33">
          <mxGeometry relative="1" as="geometry" />
        </mxCell>
        <mxCell id="bLksk85n91GG9WhDsTqR-32" value="&lt;span style=&quot;font-size: 18px;&quot;&gt;設定過濾條件&lt;/span&gt;" style="rounded=1;whiteSpace=wrap;html=1;absoluteArcSize=1;arcSize=14;strokeWidth=2;" vertex="1" parent="WIyWlLk6GJQsqaUBKTNV-1">
          <mxGeometry x="155" y="250" width="150" height="40" as="geometry" />
        </mxCell>
        <mxCell id="bLksk85n91GG9WhDsTqR-36" style="edgeStyle=orthogonalEdgeStyle;rounded=0;orthogonalLoop=1;jettySize=auto;html=1;" edge="1" parent="WIyWlLk6GJQsqaUBKTNV-1" source="bLksk85n91GG9WhDsTqR-33" target="bLksk85n91GG9WhDsTqR-11">
          <mxGeometry relative="1" as="geometry" />
        </mxCell>
        <mxCell id="bLksk85n91GG9WhDsTqR-33" value="&lt;span style=&quot;font-size: 18px;&quot;&gt;刪除異常資料&lt;/span&gt;" style="rounded=1;whiteSpace=wrap;html=1;absoluteArcSize=1;arcSize=14;strokeWidth=2;" vertex="1" parent="WIyWlLk6GJQsqaUBKTNV-1">
          <mxGeometry x="155" y="310" width="150" height="40" as="geometry" />
        </mxCell>
      </root>
    </mxGraphModel>
  </diagram>
</mxfile>
